<svg width="50mm" height="50mm" viewBox="0 0 50 50" version="1.1" id="svg1" xml:space="preserve" xmlns="http://www.w3.org/2000/svg">
    <path style="fill:#fff;stroke:#e86827;stroke-width:0;stroke-linecap:round;stroke-linejoin:round;stroke-dasharray:none" id="rect2" d="M0 0h50v50H0z"/>
    <path style="fill:#026fcf;stroke:none;stroke-width:.0976561" d="M0 0v50h50v-7.91h-4.102c-.544 0-1.357.149-1.855-.1-1.195-.6-2.203-2.355-3.125-3.318h-.098c-.935.955-1.933 2.714-3.125 3.317-.474.24-1.24.1-1.758.1H17.871V26.075h-6.445c1.887-3.982 3.635-8.059 5.37-12.11.561-1.308 1.144-2.608 1.729-3.905.255-.567.437-1.368.873-1.825.546-.572 2.506-.226 3.258-.226h3.027c.372 0 .917-.097 1.25.1.444.264.646 1.108.843 1.56.625 1.437 1.478 2.89 1.911 4.394h.098V9.766c0-.414-.162-1.283.157-1.602.42-.42 1.917-.156 2.48-.156h6.933l1.563 4.59h.098l1.107-3.125.594-1.309 2.01-.156H50V0H0m14.648 24.023c1.07 0 3.102.399 4.064-.058.857-.408.584-2.175 1.426-2.673.373-.221 1.026-.1 1.444-.1h3.32c.416 0 1.082-.125 1.427.156.584.475 1.006 1.962 1.21 2.675h8.105v-9.668h.098c.546 2.357 1.705 4.65 2.506 6.934.225.644.511 2.232 1.073 2.634.637.456 2.575.1 3.355.1l3.418-9.57h.097v9.57H50V10.06h-4.2l-1.61.1-.923 2.243-2.251 6.348h-.098c-.374-2.172-1.534-4.358-2.246-6.445-.17-.5-.425-1.945-.92-2.187-.435-.214-1.24-.06-1.717-.06h-4.101v13.868c-.71-1.006-1.088-2.299-1.593-3.418a496.948 496.948 0 0 1-2.858-6.446c-.454-1.045-.919-3.084-1.765-3.847-.272-.245-.772-.156-1.109-.156h-2.734c-.327 0-.835-.093-1.092.156-.3.29-.43.839-.598 1.21a258.31 258.31 0 0 0-1.379 3.126c-1.362 3.131-3.057 6.24-4.158 9.472m8.594-10.449 1.856 4.59h-3.809c.374-1.368 1.062-3.487 1.953-4.59m-3.222 12.5V40.04h11.816v-3.223h-8.008v-2.148h7.813v-3.125h-7.813v-2.246h8.008v-3.223H20.02m11.914 0c1.284 1.824 3.13 3.48 4.688 5.078.404.414 1.657 1.327 1.654 1.953-.003.549-1.153 1.357-1.501 1.758-1.082 1.246-2.286 2.39-3.393 3.614-.459.506-1.059.936-1.35 1.562 1.336 0 3.435.403 4.687-.059.496-.183.826-.743 1.175-1.113.982-1.04 2.167-2.106 2.926-3.32h.098c.768 1.095 1.802 2.018 2.678 3.027.378.436.87 1.2 1.424 1.406 1.296.484 3.496.06 4.882.06l-3.604-3.907-2.939-3.028v-.097c1.728-1.271 3.263-3.29 4.704-4.883.596-.658 1.46-1.239 1.84-2.05-1.345 0-3.53-.425-4.782.058-.537.207-1.057.98-1.427 1.406-.877 1.01-1.913 1.928-2.678 3.027l-2.93-3.222-1.172-1.17-1.562-.1h-3.418m17.968 3.028-3.71 3.906v.097l3.71 4.004H50v-5.566z" id="path1"/>
</svg>
