<svg width="50mm" height="50mm" viewBox="0 0 50 50" version="1.1" id="svg1" xml:space="preserve" xmlns="http://www.w3.org/2000/svg">
    <g id="layer1" transform="translate(-420)">
        <g id="g136" transform="matrix(3.43158 0 0 3.43158 -96.578 206.04)">
            <g id="g137" transform="translate(150.316 -60.263) scale(.07788)">
                <path d="M176.641 161.9a7.012 7.012 0 0 0 4.986-2.055v-.012a7.033 7.033 0 0 0 2.066-4.986h6.229a13.25 13.25 0 0 1-3.891 9.391v-.012a13.249 13.249 0 0 1-9.391 3.902V161.9Z" id="path2-7"/>
                <path d="M183.693 154.848V37.911h6.229v116.937z" id="path3-50"/>
                <path d="M183.693 37.911a7.046 7.046 0 0 0-2.064-5v.012a7.036 7.036 0 0 0-4.988-2.065V24.63c3.666 0 6.986 1.487 9.391 3.891v.012a13.236 13.236 0 0 1 3.891 9.38h-6.23zm-7.052-7.055H16.117v-6.228h160.524zm-160.524 0a7.039 7.039 0 0 0-4.988 2.065 7.034 7.034 0 0 0-2.065 4.989h-6.23c0-3.667 1.488-6.988 3.891-9.392a13.24 13.24 0 0 1 9.391-3.891v6.229zm-7.054 7.055v116.937H2.834V37.911Z" id="path4-21"/>
                <path d="M9.063 154.848c0 1.947.79 3.711 2.065 4.986a7.036 7.036 0 0 0 4.988 2.066v6.229a13.244 13.244 0 0 1-9.391-3.891 13.249 13.249 0 0 1-3.891-9.391h6.229zm7.054 7.052h160.524v6.229H16.117Z" id="path5-8"/>
                <path d="M175.988 66.07c0-8.688-7.037-15.734-15.723-15.748v-.003H102.96v31.517h57.305v-.017c8.686-.015 15.723-7.061 15.723-15.749zm0 33.426c0-8.688-7.037-15.733-15.723-15.748v-.002H102.96v31.518h57.305v-.02c8.686-.014 15.723-7.058 15.723-15.748zM59.781 83.746v-1.91h42.076V79.18c0-15.824-12.826-28.651-28.65-28.651h-26.74c-15.824 0-28.653 12.827-28.653 28.651v7.641c0 15.823 12.829 28.651 28.653 28.651h26.74c15.824 0 28.65-12.828 28.65-28.651v-3.075ZM33 142.064c-1.67 3.613-4.115 5.398-7.426 5.398-4.702 0-8.353-3.883-8.353-8.869 0-4.949 3.682-8.904 8.26-8.904 3.373 0 6.312 2.166 7.519 5.535h-2.29c-1.175-2.234-3.155-3.576-5.259-3.576-3.527 0-6.281 3.027-6.281 6.912 0 3.883 2.723 6.945 6.188 6.945 2.228 0 3.774-.998 5.352-3.441zm2.152-6.703c.216-3.951 3.27-5.65 7.508-5.65 3.27 0 6.826.914 6.826 5.422v8.945c0 .787.431 1.242 1.329 1.242.251 0 .539-.066.718-.129v1.729a6.801 6.801 0 0 1-1.474.133c-2.299 0-2.658-1.176-2.658-2.939h-.071c-1.58 2.188-3.197 3.428-6.753 3.428-3.412 0-6.213-1.535-6.213-4.93 0-4.736 5.064-4.9 9.949-5.422 1.868-.195 2.91-.424 2.91-2.285 0-2.777-2.192-3.461-4.851-3.461-2.801 0-4.885 1.174-4.956 3.918h-2.264zm12.07 2.481h-.072c-.288.492-1.293.652-1.903.75-3.844.623-8.622.59-8.622 3.887 0 2.059 2.012 3.334 4.132 3.334 3.449 0 6.501-1.994 6.466-5.293v-2.678zm5.97-7.738h2.166v2.441c.699-1.285 2.369-2.377 4.986-2.545v1.994c-1.479.137-2.167.379-3.094 1.17-1.307 1.062-1.754 2.131-1.754 4.021v9.867h-2.304zm48.439-2.924h2.303v5.846c1.479-2.199 3.746-3.336 6.635-3.336 4.918 0 9.008 3.988 9.008 8.801 0 4.951-4.021 8.973-8.973 8.973-2.854 0-5.293-1.201-6.807-3.334v2.924h-2.166zm2.131 11.517c0 3.781 3.061 6.809 6.877 6.809 3.746 0 6.771-3.129 6.771-6.945 0-3.852-2.992-6.912-6.703-6.912-4.057-.001-6.945 2.958-6.945 7.048zm16.82-11.517h2.166v19.873h-2.166zm5.756 12.205c.172 3.369 3.162 6.121 6.633 6.121 2.441 0 4.986-1.723 5.879-3.988h2.373c-1.203 3.471-4.641 5.945-8.252 5.945-4.949 0-8.902-3.918-8.902-8.869 0-4.949 3.92-8.904 8.834-8.904 3.232 0 6.223 1.824 7.77 4.711.723 1.34.996 2.613 1.064 4.984zm13.096-1.961c-.822-3.504-3.367-5.775-6.463-5.775-3.264 0-5.98 2.373-6.564 5.775zm21.38 1.961c.172 3.369 3.162 6.121 6.635 6.121 2.441 0 4.982-1.723 5.877-3.988h2.375c-1.205 3.471-4.645 5.945-8.252 5.945-4.951 0-8.904-3.918-8.904-8.869 0-4.949 3.92-8.904 8.836-8.904 3.23 0 6.221 1.824 7.768 4.711.725 1.34.998 2.613 1.066 4.984zm13.098-1.961c-.826-3.504-3.369-5.775-6.463-5.775-3.266 0-5.982 2.373-6.566 5.775zm-102.087 1.961c.172 3.369 3.163 6.121 6.634 6.121 2.441 0 4.985-1.723 5.879-3.988h2.372c-1.203 3.471-4.64 5.945-8.251 5.945-4.949 0-8.902-3.918-8.902-8.869 0-4.949 3.919-8.904 8.835-8.904 3.231 0 6.222 1.824 7.77 4.711.722 1.34.996 2.613 1.065 4.984zm13.097-1.961c-.824-3.504-3.368-5.775-6.463-5.775-3.265 0-5.981 2.373-6.565 5.775z" fill-rule="evenodd" clip-rule="evenodd" id="path6-7"/>
                <path d="M64.383 130.043h5.898v1.922h-5.898v10.668c0 1.486.218 2.355 1.851 2.465.654 0 3.395-.035 4.047-.109v1.961c-.689 0-3.43.072-4.12.072-3.049 0-4.101-1.016-4.064-4.207v-10.85h-.576v-1.922h.576v-2.863h2.286zm90.879.115v9.352c0 3.764-1.945 6.029-5.217 6.049-3.275-.02-5.217-2.285-5.217-6.049v-9.352h-2.166v9.352c0 5.088 2.578 8.012 7.08 8.012.105 0 .199-.014.303-.018.102.004.195.018.301.018 4.502 0 7.08-2.924 7.08-8.012v-9.352z" fill-rule="evenodd" clip-rule="evenodd" id="path7-1"/>
            </g>
        </g>
    </g>
</svg>
