<svg width="50mm" height="50mm" viewBox="0 0 50 50" version="1.1" id="svg1" xml:space="preserve" xmlns:xlink="http://www.w3.org/1999/xlink" xmlns="http://www.w3.org/2000/svg">
    <defs id="defs1">
        <linearGradient xlink:href="#SVGID_1_" id="linearGradient10" gradientUnits="userSpaceOnUse" gradientTransform="translate(-11.976 -13.861) scale(1.125)" x1="117.386" y1="81.399" x2="157.33" y2="81.399"/>
    </defs>
    <g transform="matrix(.26458 0 0 .26458 -16.533 104.26)" id="g6321">
        <path style="fill:#fff;stroke:#e86827;stroke-width:0;stroke-linecap:round;stroke-linejoin:round;stroke-dasharray:none" id="rect5" d="M62.487-323.825h56.329v48.743H62.487z"/>
        <path style="fill:#fff;stroke:#e86827;stroke-width:0;stroke-linecap:round;stroke-linejoin:round;stroke-dasharray:none" id="rect5-6" d="M127.912-323.825h58.374v48.743h-58.374z"/>
        <path style="fill:#fff;stroke:#e86827;stroke-width:0;stroke-linecap:round;stroke-linejoin:round;stroke-dasharray:none" id="rect5-6-3" d="M193.14-323.825h58.374v48.743H193.14z"/>
        <g transform="matrix(1.82152 0 0 1.82152 -8.544 -109.837)" id="g6323">
            <linearGradient gradientTransform="translate(-11.976 -13.861) scale(1.125)" y2="75.171" x2="68.522" y1="75.171" x1="27.959" gradientUnits="userSpaceOnUse" id="SVGID_4_">
                <stop id="stop6363" style="stop-color:#1f286f" offset="0"/>
                <stop id="stop6365" style="stop-color:#004e94" offset=".475"/>
                <stop id="stop6367" style="stop-color:#0066b1" offset=".826"/>
                <stop id="stop6369" style="stop-color:#006fbc" offset="1"/>
            </linearGradient>
            <linearGradient gradientTransform="translate(-11.976 -13.861) scale(1.125)" y2="75.171" x2="111.855" y1="75.171" x1="72.46" gradientUnits="userSpaceOnUse" id="SVGID_5_">
                <stop id="stop6374" style="stop-color:#6c2c2f" offset="0"/>
                <stop id="stop6376" style="stop-color:#882730" offset=".173"/>
                <stop id="stop6378" style="stop-color:#be1833" offset=".573"/>
                <stop id="stop6380" style="stop-color:#dc0436" offset=".859"/>
                <stop id="stop6382" style="stop-color:#e60039" offset="1"/>
            </linearGradient>
            <g id="g10" transform="matrix(.71304 0 0 .71304 25.162 -154.644)">
                <g id="g6327">
                    <linearGradient gradientTransform="translate(-11.976 -13.861) scale(1.125)" y2="81.399" x2="157.33" y1="81.399" x1="117.386" gradientUnits="userSpaceOnUse" id="SVGID_1_">
                        <stop id="stop6330" style="stop-color:#007940" offset="0"/>
                        <stop id="stop6332" style="stop-color:#00873f" offset=".229"/>
                        <stop id="stop6334" style="stop-color:#40a737" offset=".743"/>
                        <stop id="stop6336" style="stop-color:#5cb531" offset="1"/>
                    </linearGradient>
                    <path style="fill:url(#linearGradient10)" id="path6338" d="M129 82.5h10.5c.3 0 1-.1 1.3-.1 2-.4 3.7-2.2 3.7-4.7 0-2.4-1.7-4.2-3.7-4.7-.3-.1-.9-.1-1.3-.1H129Z"/>
                    <linearGradient gradientTransform="translate(-11.976 -13.861) scale(1.125)" y2="75.171" x2="157.332" y1="75.171" x1="117.384" gradientUnits="userSpaceOnUse" id="SVGID_2_">
                        <stop id="stop6341" style="stop-color:#007940" offset="0"/>
                        <stop id="stop6343" style="stop-color:#00873f" offset=".229"/>
                        <stop id="stop6345" style="stop-color:#40a737" offset=".743"/>
                        <stop id="stop6347" style="stop-color:#5cb531" offset="1"/>
                    </linearGradient>
                    <path style="fill:url(#SVGID_2_)" id="path6349" d="M138.3 16.2c-10 0-18.2 8.1-18.2 18.2v18.9h25.7c.6 0 1.3 0 1.8.1 5.8.3 10.1 3.3 10.1 8.5 0 4.1-2.9 7.6-8.3 8.3v.2c5.9.4 10.4 3.7 10.4 8.8 0 5.5-5 9.1-11.6 9.1H120v37h26.7c10 0 18.2-8.1 18.2-18.2V16.2Z"/>
                    <linearGradient gradientTransform="translate(-11.976 -13.861) scale(1.125)" y2="68.399" x2="157.331" y1="68.399" x1="117.385" gradientUnits="userSpaceOnUse" id="SVGID_3_">
                        <stop id="stop6352" style="stop-color:#007940" offset="0"/>
                        <stop id="stop6354" style="stop-color:#00873f" offset=".229"/>
                        <stop id="stop6356" style="stop-color:#40a737" offset=".743"/>
                        <stop id="stop6358" style="stop-color:#5cb531" offset="1"/>
                    </linearGradient>
                    <path style="fill:url(#SVGID_3_)" id="path6360" d="M143.2 63.1c0-2.4-1.7-4-3.7-4.3-.2 0-.7-.1-1-.1H129v8.8h9.5c.3 0 .9 0 1-.1 2-.3 3.7-1.9 3.7-4.3z"/>
                </g>
                <path style="fill:url(#SVGID_4_)" id="path6371" d="M37.7 16.2c-10 0-18.2 8.1-18.2 18.2v44.9c5.1 2.5 10.4 4.1 15.7 4.1 6.3 0 9.7-3.8 9.7-9V53.2h15.6v21.1c0 8.2-5.1 14.9-22.4 14.9-10.5 0-18.7-2.3-18.7-2.3v38.3h26.7c10 0 18.2-8.1 18.2-18.2V16.2Z"/>
                <path style="fill:url(#SVGID_5_)" id="path6384" d="M88 16.2c-10 0-18.2 8.1-18.2 18.2v23.8c4.6-3.9 12.6-6.4 25.5-5.8 6.9.3 14.3 2.2 14.3 2.2v7.7c-3.7-1.9-8.1-3.6-13.8-4-9.8-.7-15.7 4.1-15.7 12.5 0 8.5 5.9 13.3 15.7 12.5 5.7-.4 10.1-2.2 13.8-4V87s-7.3 1.9-14.3 2.2c-12.9.6-20.9-1.9-25.5-5.8v42h26.7c10 0 18.2-8.1 18.2-18.2v-91z"/>
            </g>
        </g>
    </g>
</svg>
