<svg width="50mm" height="25mm" viewBox="0 0 50 25" version="1.1" id="svg1" xml:space="preserve" xmlns="http://www.w3.org/2000/svg">
    <g id="g15" transform="translate(-352.1 -65.348) scale(.28403)">
        <path style="fill:#fff;stroke:#e86827;stroke-width:0;stroke-linecap:round;stroke-linejoin:round;stroke-dasharray:none" id="rect47" transform="matrix(3.52072 0 0 3.52072 1037.354 36.15)" d="M-357.995 52.644h43.99v42.308h-43.99z"/>
        <path style="fill:#006ece" d="M-244.56 294.97v-88.018h176.389v28.213l-13.094.093-13.094.092-2.763 7.714c-1.52 4.242-2.813 7.764-2.875 7.826-.062.062-1.372-3.449-2.911-7.802l-2.798-7.914h-33.716l-.093 10.48-.094 10.48-4.613-10.392-4.614-10.392-13.73-.09-13.731-.09-13.98 31.664-13.98 31.663 11.246.094 11.246.093v56.434h70.513l5.429-5.93 5.428-5.93 5.37 5.93 5.37 5.93h21.484v27.87H-244.56zm70.556 28.398v-24.694h41.98v11.289H-160.599v8.114h27.87v10.936h-27.87v7.76H-132.024v11.29h-41.98zm43.113 23.725 11.53-12.26c5.84-6.208 10.58-11.392 10.531-11.518-.048-.127-4.929-5.356-10.847-11.622-5.918-6.265-11.049-11.758-11.402-12.206l-.643-.813h17.16l7.18 7.938c3.947 4.365 7.281 7.925 7.408 7.91.126-.014 3.469-3.586 7.429-7.937l7.2-7.911h16.96l-1.065 1.146c-.585.63-5.736 6.047-11.446 12.035-5.71 5.989-10.426 11.073-10.48 11.298-.078.319 11.854 13.27 21.729 23.587l1.266 1.323h-17.348l-7.184-7.933c-3.952-4.363-7.283-7.935-7.403-7.937-.12-.003-3.454 3.562-7.408 7.922l-7.19 7.928-8.445.01-8.444.01zm55.923-16.747-6.622-7.095 2.923-3.028c1.607-1.666 4.626-4.826 6.709-7.022l3.787-3.994v14.136c0 7.775-.04 14.128-.088 14.117-.049-.01-3.068-3.212-6.71-7.114zm-117.734-38.933c0-.114 4.866-11.226 10.812-24.695l10.812-24.489h17.1l4.091 9.26 10.762 24.362c3.669 8.306 6.768 15.198 6.886 15.317.118.118.215-10.845.215-24.362V242.23l10.495.006 10.495.006 5.45 15.317c2.998 8.424 5.54 15.261 5.651 15.193.11-.068 2.659-6.963 5.663-15.322l5.461-15.199h10.32l10.318-.002V291.617H-81.57l-.091-17.173-.092-17.174-4.186 11.44a10775.37 10775.37 0 0 1-6.3 17.183l-2.116 5.741-5.81-.096-5.812-.097-6.232-17.018c-3.428-9.36-6.352-17.02-6.498-17.022-.145-.002-.264 7.696-.264 17.107v17.11H-147.106l-2.053-4.94-2.052-4.938H-174.258l-2.027 4.939-2.028 4.938h-7.194c-3.957 0-7.195-.092-7.195-.205zm36.54-21.226c-.941-2.589-6.416-15.604-6.565-15.607-.19-.004-6.691 15.518-6.691 15.976 0 .137 3.033.248 6.74.248 6.27 0 6.725-.043 6.516-.617z" id="path15"/>
        <g id="g48" transform="matrix(9.84867 0 0 9.84867 -265.899 220.6)">
            <g id="svg_6" stroke="null" transform="matrix(.93152 0 0 .93152 132.737 .729)">
                <path d="M3.74 2.074c.227-.282.38-.661.34-1.05-.331.017-.735.219-.968.502-.21.242-.396.637-.347 1.009.371.032.742-.186.976-.46" id="svg_7" stroke="null"/>
                <path d="M4.075 2.607c-.539-.032-.997.306-1.254.306-.258 0-.652-.29-1.079-.282a1.59 1.59 0 0 0-1.351.821c-.58.999-.153 2.48.41 3.293.274.402.603.845 1.038.83.41-.017.571-.267 1.07-.267.499 0 .643.266 1.078.258.45-.008.732-.402 1.006-.805.314-.459.442-.902.45-.926-.008-.008-.869-.338-.877-1.328-.008-.83.676-1.224.708-1.248-.386-.571-.99-.636-1.199-.652" id="svg_8" stroke="null"/>
            </g>
            <path d="M140.906 2.112c1.091 0 1.851.753 1.851 1.848 0 1.1-.775 1.856-1.878 1.856h-1.209v1.922h-.873V2.112h2.109zm-1.236 2.97h1.002c.76 0 1.193-.408 1.193-1.118 0-.71-.433-1.115-1.19-1.115h-1.005v2.234z" id="svg_10" stroke="null" style="stroke-width:.931525"/>
            <path d="M142.986 6.572c0-.717.55-1.158 1.524-1.212l1.123-.067v-.315c0-.457-.308-.73-.823-.73-.487 0-.791.234-.865.6h-.796c.047-.74.679-1.286 1.692-1.286.994 0 1.63.527 1.63 1.35v2.826h-.807v-.675h-.02c-.237.456-.756.745-1.294.745-.803 0-1.364-.5-1.364-1.236zm2.647-.37v-.324l-1.01.062c-.503.036-.788.258-.788.609 0 .358.297.592.749.592.589 0 1.049-.405 1.049-.94z" id="svg_11" stroke="null" style="stroke-width:.931525"/>
            <path d="M147.233 9.246v-.682c.062.016.202.016.272.016.39 0 .6-.164.73-.585 0-.008.073-.25.073-.254l-1.48-4.104h.911l1.037 3.337h.016l1.037-3.337h.889l-1.536 4.315c-.351.994-.757 1.314-1.606 1.314-.07 0-.281-.008-.343-.02z" id="svg_12" stroke="null" style="stroke-width:.931525"/>
        </g>
        <g id="svg_1" stroke="null" transform="translate(1233.014 226.756) scale(9.46515)">
            <path fill="#5f6368" d="M9.497 4.915V7.08H8.81V1.734h1.821a1.647 1.647 0 0 1 1.18.463 1.488 1.488 0 0 1 .492 1.128 1.481 1.481 0 0 1-.492 1.135q-.478.455-1.18.455H9.497zm0-2.523V4.26h1.151a.908.908 0 0 0 .68-.277.911.911 0 0 0 0-1.307.896.896 0 0 0-.68-.283H9.497Z" id="svg_2" stroke="null"/>
            <path fill="#5f6368" d="M13.886 3.303q.761 0 1.202.407.44.407.44 1.116V7.08h-.657v-.507h-.03q-.426.627-1.134.627-.605 0-1.012-.359a1.144 1.144 0 0 1-.407-.895q0-.568.43-.903.429-.336 1.145-.337.612 0 1.008.224v-.157a.782.782 0 0 0-.284-.607.973.973 0 0 0-.663-.25q-.575 0-.91.485l-.605-.381q.499-.717 1.477-.717zm-.889 2.658a.549.549 0 0 0 .228.447.838.838 0 0 0 .534.18 1.095 1.095 0 0 0 .772-.321q.342-.321.342-.754-.322-.256-.896-.256-.419 0-.698.202c-.188.136-.282.302-.282.502z" id="svg_3" stroke="null"/>
            <path fill="#5f6368" d="m19.3 3.422-2.294 5.27h-.709l.851-1.843-1.508-3.427h.747l1.09 2.628h.014l1.06-2.628h.748z" id="svg_4" stroke="null"/>
            <path fill="#4285f4" d="M6.721 4.449a3.66 3.66 0 0 0-.053-.625H3.772v1.183h1.659a1.422 1.422 0 0 1-.613.933v.768h.99c.58-.534.913-1.325.913-2.26Z" id="svg_19" stroke="null"/>
            <path fill="#34a853" d="M3.772 7.45c.829 0 1.527-.272 2.036-.741l-.99-.768c-.276.187-.63.293-1.046.293-.801 0-1.481-.54-1.724-1.267h-1.02v.79A3.071 3.071 0 0 0 3.772 7.45Z" id="svg_20" stroke="null"/>
            <path fill="#fbbc04" d="M2.048 4.967a1.84 1.84 0 0 1 0-1.176V3h-1.02a3.071 3.071 0 0 0 0 2.758z" id="svg_21" stroke="null"/>
            <path fill="#ea4335" d="M3.772 2.523a1.667 1.667 0 0 1 1.178.46l.877-.876a2.951 2.951 0 0 0-2.055-.8A3.071 3.071 0 0 0 1.028 3l1.02.791c.243-.728.923-1.268 1.724-1.268Z" id="svg_22" stroke="null"/>
        </g>
    </g>
    <style type="text/css" id="style1">
        .st2{fill:url(#SVGID_2_)}.st3{fill:url(#SVGID_3_)}.st4{fill:url(#SVGID_4_)}.st5{fill:url(#SVGID_5_)}.st0{fill:#fff}.st1{fill:#006fcf}
    </style>
</svg>
