<svg width="50mm" height="50mm" viewBox="0 0 50 50" version="1.1" id="svg1" xml:space="preserve" xmlns="http://www.w3.org/2000/svg">
    <g id="g7" transform="matrix(.25 0 0 .25 92.419 98.596)">
        <g id="g4" transform="translate(-369.676 -356.184)">
            <path fill="#00a2e5" d="M198.1 100.1v-2.4h-.6l-.7 1.6-.7-1.6h-.6v2.4h.4v-1.8l.7 1.6h.5l.7-1.6v1.8zm-4 0v-2h.8v-.4h-2v.4h.8v2z" id="path1-2"/>
            <path fill="#7375cf" d="M127 110.4H72.9V13.2H127Z" id="path2-1"/>
            <path fill="#eb001b" d="M76.4 61.8c0-19.7 9.2-37.3 23.6-48.6C89.5 4.9 76.2 0 61.8 0 27.7 0 0 27.7 0 61.8c0 34.1 27.7 61.8 61.8 61.8 14.4 0 27.7-4.9 38.2-13.2-14.4-11.3-23.6-28.9-23.6-48.6" id="path3-10"/>
            <path fill="#00a2e5" d="M200 61.8c0 34.1-27.7 61.8-61.8 61.8-14.4 0-27.7-4.9-38.2-13.2 14.4-11.3 23.6-28.9 23.6-48.6 0-19.7-9.2-37.3-23.6-48.6C110.5 4.9 123.8 0 138.2 0 172.3 0 200 27.7 200 61.8" id="path4-1"/>
        </g>
    </g>
</svg>
