<svg
  width="50mm"
  height="50mm"
  viewBox="0 0 50 50"
  version="1.1"
  id="svg1"
  xml:space="preserve"
  xmlns="http://www.w3.org/2000/svg"
>
    <g id="layer1">
        <path
          style="fill:#1333ca;stroke-width:.141903"
          d="M27.392 33.007c-1.386-.143-3.243-.63-3.184-.837.013-.045.176-.803.361-1.684.185-.881.34-1.608.345-1.615.005-.007.24.089.524.213 1.189.52 2.151.726 3.373.725.839-.001 1.28-.071 1.723-.274.6-.275.963-.74.963-1.238 0-.694-.436-1.098-2.152-1.99-1.805-.94-2.653-1.664-3.136-2.68-.256-.538-.338-.92-.333-1.551.02-2.674 2.139-4.616 5.52-5.06 1.145-.15 2.65-.058 3.83.234.335.083 1.174.337 1.213.368.015.011-.679 3.24-.701 3.262-.01.009-.183-.052-.387-.134a9.943 9.943 0 0 0-1.891-.501c-.63-.089-1.854-.037-2.267.096-.884.285-1.355 1.007-1.048 1.609.2.392.653.737 1.677 1.276 2.242 1.181 2.987 1.788 3.505 2.854.258.533.375 1.05.375 1.669 0 2.856-2.206 4.865-5.782 5.264-.532.06-1.925.056-2.528-.006zM6.496 26.443c-.903-3.503-1.7-6.499-1.769-6.657-.232-.53-.758-.883-2.001-1.344-.568-.21-2.108-.663-2.443-.719-.292-.047-.312-.071-.262-.315l.044-.213h3.413c2.142 0 3.535.02 3.738.053.397.065.845.296 1.084.561.388.43.396.46 1.321 5.393.473 2.52.868 4.59.88 4.6.026.028-.047.21 2.124-5.276l2.026-5.118.086-.213h2.097c1.154 0 2.097.014 2.097.03 0 .018-1.422 3.425-3.16 7.572l-3.261 7.779-.1.238H8.14Zm10.886 6.334c.001-.021.751-3.53 1.666-7.798l1.663-7.76 2.015-.012 2.015-.013-.028.113c-.015.062-.767 3.571-1.67 7.797L21.4 32.79l-2.01.013c-1.106.007-2.01-.005-2.008-.025zm18.17.015c0-.101 6.143-14.656 6.254-14.817.263-.383.7-.645 1.21-.728.176-.028 1.086-.052 2.022-.052h1.702l.917 4.393 1.63 7.809.713 3.417H46.281l-.188-.914-.238-1.151-.05-.238H40.584l-.319.888a155.17 155.17 0 0 1-.417 1.152l-.098.263H37.65c-1.154 0-2.098-.01-2.098-.022zm9.561-5.532c0-.074-1.15-5.57-1.193-5.707-.032-.097-.247.452-1.082 2.754l-1.066 2.937c-.019.05.333.063 1.659.063 1.012 0 1.682-.019 1.682-.047z"
          id="path8-3"
        />
    </g>
</svg>
